<svg width="8" height="12" viewBox="0 0 8 12" fill="none" xmlns="http://www.w3.org/2000/svg">
<path d="M5.39111 11.2998L0.791113 6.6998C0.691113 6.5998 0.620446 6.49147 0.579113 6.3748C0.537113 6.25814 0.516113 6.13314 0.516113 5.9998C0.516113 5.86647 0.537113 5.74147 0.579113 5.6248C0.620446 5.50814 0.691113 5.3998 0.791113 5.2998L5.39111 0.699804C5.57445 0.516471 5.80778 0.424805 6.09111 0.424805C6.37445 0.424805 6.60778 0.516471 6.79111 0.699804C6.97445 0.883138 7.06611 1.11647 7.06611 1.3998C7.06611 1.68314 6.97445 1.91647 6.79111 2.0998L2.89111 5.9998L6.79111 9.8998C6.97445 10.0831 7.06611 10.3165 7.06611 10.5998C7.06611 10.8831 6.97445 11.1165 6.79111 11.2998C6.60778 11.4831 6.37445 11.5748 6.09111 11.5748C5.80778 11.5748 5.57445 11.4831 5.39111 11.2998Z" fill="black"/>
</svg>
