<svg width="7" height="12" viewBox="0 0 7 12" fill="none" xmlns="http://www.w3.org/2000/svg">
<path d="M2.10889 0.700196L6.70889 5.3002C6.80889 5.4002 6.87955 5.50853 6.92089 5.6252C6.96289 5.74186 6.98389 5.86686 6.98389 6.0002C6.98389 6.13353 6.96289 6.25853 6.92089 6.3752C6.87955 6.49186 6.80889 6.6002 6.70889 6.7002L2.10889 11.3002C1.92555 11.4835 1.69222 11.5752 1.40889 11.5752C1.12555 11.5752 0.89222 11.4835 0.708887 11.3002C0.525554 11.1169 0.433887 10.8835 0.433887 10.6002C0.433887 10.3169 0.525554 10.0835 0.708887 9.9002L4.60889 6.0002L0.708887 2.1002C0.525554 1.91686 0.433887 1.68353 0.433887 1.4002C0.433887 1.11686 0.525554 0.88353 0.708887 0.700196C0.89222 0.516863 1.12555 0.425195 1.40889 0.425195C1.69222 0.425195 1.92555 0.516863 2.10889 0.700196Z" fill="black"/>
</svg>
