<svg width="70" height="59" viewBox="0 0 70 59" fill="none" xmlns="http://www.w3.org/2000/svg">
<path d="M33.4177 58.3842C32.9789 58.3842 32.5674 58.3431 32.1834 58.2608C31.7993 58.1785 31.4153 58.0276 31.0313 57.8082L12.1042 47.4395C11.3361 47.0006 10.719 46.3971 10.2526 45.629C9.78632 44.861 9.55316 44.0106 9.55316 43.078V26.2905L1.2417 21.7645C0.80281 21.545 0.487359 21.2433 0.295345 20.8592C0.103331 20.4752 0.00732422 20.0638 0.00732422 19.6249C0.00732422 19.186 0.103331 18.7745 0.295345 18.3905C0.487359 18.0065 0.80281 17.7047 1.2417 17.4853L31.0313 1.19154C31.4153 0.972092 31.7993 0.807509 32.1834 0.697786C32.5674 0.588064 32.9789 0.533203 33.4177 0.533203C33.8566 0.533203 34.2681 0.588064 34.6521 0.697786C35.0361 0.807509 35.4202 0.972092 35.8042 1.19154L68.3917 18.8842C68.8306 19.1585 69.1598 19.4877 69.3792 19.8717C69.5986 20.2558 69.7084 20.6672 69.7084 21.1061V43.2426C69.7084 43.9558 69.4752 44.5455 69.0089 45.0118C68.5426 45.4782 67.9528 45.7113 67.2396 45.7113C66.5264 45.7113 65.9367 45.4782 65.4703 45.0118C65.004 44.5455 64.7709 43.9558 64.7709 43.2426V22.5051L57.2823 26.2905V43.078C57.2823 44.0106 57.0492 44.861 56.5828 45.629C56.1165 46.3971 55.4993 47.0006 54.7313 47.4395L35.8042 57.8082C35.4202 58.0276 35.0361 58.1785 34.6521 58.2608C34.2681 58.3431 33.8566 58.3842 33.4177 58.3842ZM33.4177 33.779L59.3396 19.6249L33.4177 5.71758L7.66045 19.6249L33.4177 33.779ZM33.4177 53.529L52.3448 43.078V29.253L35.8042 38.1405C35.4202 38.3599 35.0361 38.5108 34.6521 38.5931C34.2681 38.6754 33.8566 38.7165 33.4177 38.7165C32.9789 38.7165 32.5811 38.6754 32.2245 38.5931C31.8679 38.5108 31.4976 38.3599 31.1136 38.1405L14.4907 29.0884V43.078L33.4177 53.529Z" fill="currentColor"/>
</svg>
