<svg width="51" height="70" viewBox="0 0 51 70" fill="none" xmlns="http://www.w3.org/2000/svg">
<path d="M23.2655 0.291992C28.2578 0.291992 32.5233 2.03383 36.0618 5.51751C39.6003 9.00119 41.3696 13.2392 41.3696 18.2316C41.3696 21.0844 40.7524 23.7725 39.5181 26.2962C38.2837 28.8198 36.5418 30.9594 34.2925 32.7149H31.4946V28.6003C33.0856 27.3385 34.3063 25.8024 35.1566 23.992C36.0069 22.1816 36.4321 20.2614 36.4321 18.2316C36.4321 14.6107 35.1429 11.5385 32.5644 9.01491C29.9859 6.4913 26.8863 5.22949 23.2655 5.22949C19.6446 5.22949 16.545 6.4913 13.9665 9.01491C11.388 11.5385 10.0988 14.6107 10.0988 18.2316C10.0988 20.2614 10.524 22.1816 11.3743 23.992C12.2247 25.8024 13.4453 27.3385 15.0363 28.6003V34.5253C11.9641 32.9344 9.55018 30.685 7.79462 27.7774C6.03907 24.8698 5.16129 21.6878 5.16129 18.2316C5.16129 13.2392 6.93056 9.00119 10.4691 5.51751C14.0076 2.03383 18.2731 0.291992 23.2655 0.291992ZM20.1384 69.417C19.2057 69.417 18.328 69.2387 17.505 68.8821C16.6821 68.5255 15.9689 68.0455 15.3655 67.442L1.78733 53.8639C0.964412 53.041 0.56667 51.9163 0.594101 50.4899C0.621531 49.0635 1.18386 47.7194 2.28108 46.4576C3.3783 45.1958 4.48924 44.3866 5.61389 44.03C6.73854 43.6734 7.9592 43.6323 9.27587 43.9066L15.0363 45.2232V18.3962C15.0363 16.092 15.8318 14.1444 17.4227 12.5535C19.0137 10.9625 20.9613 10.167 23.2655 10.167C25.5696 10.167 27.5172 10.9625 29.1082 12.5535C30.6991 14.1444 31.4946 16.092 31.4946 18.3962V32.5503H33.6342C33.9085 32.5503 34.1554 32.6052 34.3748 32.7149C34.5943 32.8246 34.8411 32.9344 35.1155 33.0441L47.2946 38.9691C48.6113 39.5725 49.5851 40.5463 50.216 41.8904C50.8469 43.2345 51.0252 44.6198 50.7509 46.0462L47.7884 63.9857C47.5141 65.5767 46.746 66.8797 45.4842 67.8946C44.2224 68.9095 42.796 69.417 41.205 69.417H20.1384ZM19.48 64.4795H42.604L46.1425 43.9889L31.0832 36.5003H26.5571V18.3962C26.5571 17.4087 26.2554 16.6132 25.6519 16.0097C25.0484 15.4062 24.253 15.1045 23.2655 15.1045C22.278 15.1045 21.4825 15.4062 20.879 16.0097C20.2755 16.6132 19.9738 17.4087 19.9738 18.3962V51.2305L7.30087 48.5149L5.40816 50.4076L19.48 64.4795Z" fill="currentColor"/>
</svg>
