<svg width="31" height="30" viewBox="0 0 31 30" fill="none" xmlns="http://www.w3.org/2000/svg">
<path d="M2.5625 29.8531C1.85069 29.8531 1.24594 29.6037 0.74825 29.1049C0.249417 28.6072 0 28.0024 0 27.2906V24.0448L6.83333 17.9802V29.8531H2.5625ZM8.54167 29.8531V23.0198H22.2083V29.8531H8.54167ZM23.9167 29.8531V15.8448L16.6135 9.35312L21.7812 4.78333L29.8958 12.001C30.1806 12.2573 30.3941 12.5488 30.5365 12.8757C30.6788 13.2037 30.75 13.5528 30.75 13.9229V27.2906C30.75 28.0024 30.5006 28.6072 30.0018 29.1049C29.5041 29.6037 28.8993 29.8531 28.1875 29.8531H23.9167ZM0 21.7385V13.9229C0 13.5528 0.0711806 13.1969 0.213542 12.8552C0.355903 12.5135 0.569444 12.2288 0.854167 12.001L13.6667 0.640625C13.8944 0.412847 14.1581 0.248847 14.4576 0.148625C14.756 0.0495415 15.0618 0 15.375 0C15.6882 0 15.9946 0.0495415 16.2941 0.148625C16.5925 0.248847 16.8556 0.412847 17.0833 0.640625L20.5 3.67292L0 21.7385Z" fill="currentColor"/>
</svg>
