<svg width="15" height="15" viewBox="0 0 15 15" fill="none" xmlns="http://www.w3.org/2000/svg">
<path d="M7.61915 3.57374C5.53727 3.57374 3.85802 5.25299 3.85802 7.33488C3.85802 9.41676 5.53727 11.096 7.61915 11.096C9.70104 11.096 11.3803 9.41676 11.3803 7.33488C11.3803 5.25299 9.70104 3.57374 7.61915 3.57374ZM7.61915 9.78011C6.27379 9.78011 5.17392 8.68352 5.17392 7.33488C5.17392 5.98623 6.27051 4.88964 7.61915 4.88964C8.9678 4.88964 10.0644 5.98623 10.0644 7.33488C10.0644 8.68352 8.96452 9.78011 7.61915 9.78011ZM12.4114 3.41989C12.4114 3.90762 12.0186 4.29716 11.5341 4.29716C11.0464 4.29716 10.6569 3.90435 10.6569 3.41989C10.6569 2.93542 11.0497 2.54261 11.5341 2.54261C12.0186 2.54261 12.4114 2.93542 12.4114 3.41989ZM14.9025 4.31025C14.8468 3.1351 14.5784 2.09416 13.7175 1.23653C12.8599 0.378896 11.8189 0.110477 10.6438 0.0515561C9.43262 -0.0171854 5.80242 -0.0171854 4.59126 0.0515561C3.41938 0.107204 2.37844 0.375623 1.51753 1.23325C0.656629 2.09089 0.391483 3.13183 0.332562 4.30698C0.263821 5.51814 0.263821 9.14834 0.332562 10.3595C0.38821 11.5346 0.656629 12.5756 1.51753 13.4332C2.37844 14.2909 3.41611 14.5593 4.59126 14.6182C5.80242 14.6869 9.43262 14.6869 10.6438 14.6182C11.8189 14.5625 12.8599 14.2941 13.7175 13.4332C14.5751 12.5756 14.8436 11.5346 14.9025 10.3595C14.9712 9.14834 14.9712 5.52141 14.9025 4.31025ZM13.3378 11.659C13.0825 12.3006 12.5882 12.7949 11.9433 13.0535C10.9777 13.4365 8.68628 13.3481 7.61915 13.3481C6.55203 13.3481 4.25737 13.4332 3.29499 13.0535C2.6534 12.7982 2.15912 12.3039 1.90052 11.659C1.51753 10.6934 1.60592 8.40201 1.60592 7.33488C1.60592 6.26775 1.52081 3.97309 1.90052 3.01071C2.15585 2.36912 2.65013 1.87484 3.29499 1.61624C4.26064 1.23325 6.55203 1.32164 7.61915 1.32164C8.68628 1.32164 10.9809 1.23653 11.9433 1.61624C12.5849 1.87157 13.0792 2.36585 13.3378 3.01071C13.7208 3.97637 13.6324 6.26775 13.6324 7.33488C13.6324 8.40201 13.7208 10.6967 13.3378 11.659Z" fill="currentColor" fill-opacity="0.7"/>
</svg>
