<svg viewBox="0 0 24 24" fill="none" xmlns="http://www.w3.org/2000/svg">
<path d="M11.7813 21.8332L16.6833 8.83317H18.9042L23.9417 21.8332H21.5854L20.475 18.4207H15.275L14.0021 21.8332H11.7813ZM15.8708 16.5248H19.7167L17.8208 11.2707H17.7667L15.8708 16.5248ZM3.25 18.5832L1.76042 17.0936L7.28542 11.5686C6.59931 10.7741 5.98993 9.97518 5.45729 9.17171C4.92465 8.36824 4.45972 7.53317 4.0625 6.6665H6.41875C6.72569 7.26234 7.06424 7.82657 7.43438 8.35921C7.80451 8.89185 8.22431 9.43803 8.69375 9.99775C9.50625 9.14914 10.1833 8.26893 10.725 7.35713C11.2667 6.44532 11.7271 5.49289 12.1063 4.49984H0V2.33317H7.58333V0.166504H9.75V2.33317H17.3333V4.49984H14.2729C13.8757 5.74567 13.3476 6.96893 12.6885 8.16963C12.0295 9.37032 11.2215 10.5123 10.2646 11.5957L12.9188 14.2769L12.1063 16.4707L8.66667 13.1665L3.25 18.5832Z" fill="currentColor"/>
</svg>
