<svg width="41" height="67" viewBox="0 0 41 67" fill="none" xmlns="http://www.w3.org/2000/svg">
<path d="M20.4999 66.4168C14.6846 66.4168 9.93909 65.5665 6.2634 63.8658C2.5877 62.1651 0.749854 59.9981 0.749854 57.3647C0.749854 55.8835 1.4219 54.4845 2.766 53.1679C4.1101 51.8512 5.96166 50.7814 8.32069 49.9585L9.80194 54.7314C8.92416 55.0057 8.11496 55.3897 7.37433 55.8835C6.63371 56.3772 6.04395 56.871 5.60506 57.3647C6.5377 58.462 8.47156 59.422 11.4066 60.245C14.3417 61.0679 17.3728 61.4793 20.4999 61.4793C23.6269 61.4793 26.6717 61.0679 29.6342 60.245C32.5967 59.422 34.5443 58.462 35.4769 57.3647C35.038 56.9259 34.462 56.4595 33.7488 55.9658C33.0356 55.472 32.2127 55.0606 31.2801 54.7314L32.679 49.9585C35.0381 50.7814 36.8896 51.8512 38.2337 53.1679C39.5778 54.4845 40.2499 55.8835 40.2499 57.3647C40.2499 59.9981 38.412 62.1651 34.7363 63.8658C31.0606 65.5665 26.3151 66.4168 20.4999 66.4168ZM20.4999 48.7241C21.6519 46.5845 22.8726 44.6233 24.1618 42.8403C25.4511 41.0573 26.7266 39.3703 27.9884 37.7793C30.4023 34.6522 32.3087 31.9641 33.7077 29.7147C35.1066 27.4654 35.8061 24.5029 35.8061 20.8272C35.8061 16.5481 34.3249 12.9272 31.3624 9.96475C28.3999 7.00225 24.779 5.521 20.4999 5.521C16.2207 5.521 12.5999 7.00225 9.63735 9.96475C6.67485 12.9272 5.1936 16.5481 5.1936 20.8272C5.1936 24.5029 5.89308 27.4654 7.29204 29.7147C8.691 31.9641 10.5974 34.6522 13.0113 37.7793C14.2731 39.3703 15.5486 41.0573 16.8379 42.8403C18.1271 44.6233 19.3478 46.5845 20.4999 48.7241ZM20.4999 57.6939C19.8415 57.6939 19.2655 57.5019 18.7717 57.1179C18.278 56.7338 17.9214 56.2401 17.7019 55.6366C16.3853 51.6318 14.7394 48.3127 12.7644 45.6793C10.7894 43.046 8.8693 40.5224 7.00402 38.1085C5.13874 35.6946 3.54777 33.1847 2.2311 30.5788C0.914437 27.9729 0.256104 24.7224 0.256104 20.8272C0.256104 15.1766 2.21739 10.3899 6.13996 6.46735C10.0625 2.54478 14.8492 0.583496 20.4999 0.583496C26.1505 0.583496 30.9372 2.54478 34.8597 6.46735C38.7823 10.3899 40.7436 15.1766 40.7436 20.8272C40.7436 24.7224 40.0853 27.9729 38.7686 30.5788C37.4519 33.1847 35.861 35.6946 33.9957 38.1085C32.1304 40.5224 30.2103 43.046 28.2353 45.6793C26.2603 48.3127 24.6144 51.6318 23.2978 55.6366C23.0783 56.2401 22.7217 56.7338 22.228 57.1179C21.7342 57.5019 21.1582 57.6939 20.4999 57.6939ZM20.4999 25.7647C21.8714 25.7647 23.0372 25.2847 23.9972 24.3246C24.9573 23.3646 25.4374 22.1988 25.4374 20.8272C25.4374 19.4557 24.9573 18.2899 23.9972 17.3299C23.0372 16.3698 21.8714 15.8897 20.4999 15.8897C19.1283 15.8897 17.9625 16.3698 17.0025 17.3299C16.0424 18.2899 15.5624 19.4557 15.5624 20.8272C15.5624 22.1988 16.0424 23.3646 17.0025 24.3246C17.9625 25.2847 19.1283 25.7647 20.4999 25.7647Z" fill="currentColor"/>
</svg>
