<svg width="23" height="23" viewBox="0 0 23 23" fill="none" xmlns="http://www.w3.org/2000/svg">
<path d="M16.375 14.5H15.3875L15.0375 14.1625C16.3048 12.6925 17.0014 10.8159 17 8.875C17 7.26803 16.5235 5.69714 15.6307 4.361C14.7379 3.02485 13.469 1.98344 11.9843 1.36848C10.4997 0.75352 8.86599 0.592618 7.28989 0.906123C5.7138 1.21963 4.26606 1.99346 3.12976 3.12976C1.99346 4.26606 1.21963 5.7138 0.906123 7.28989C0.592618 8.86599 0.75352 10.4997 1.36848 11.9843C1.98344 13.469 3.02485 14.7379 4.361 15.6307C5.69714 16.5235 7.26803 17 8.875 17C10.8875 17 12.7375 16.2625 14.1625 15.0375L14.5 15.3875V16.375L20.75 22.6125L22.6125 20.75L16.375 14.5ZM8.875 14.5C5.7625 14.5 3.25 11.9875 3.25 8.875C3.25 5.7625 5.7625 3.25 8.875 3.25C11.9875 3.25 14.5 5.7625 14.5 8.875C14.5 11.9875 11.9875 14.5 8.875 14.5Z" fill="currentColor"/>
</svg>
