<svg xmlns="http://www.w3.org/2000/svg" width="20" height="26" fill="none" viewBox="0 0 20 26"><path fill="currentColor" d="M10 13c.688 0 1.276-.245 1.766-.735s.734-1.078.734-1.765a2.41 2.41 0 0 0-.734-1.766A2.41 2.41 0 0 0 10 8c-.688 0-1.276.245-1.765.734A2.408 2.408 0 0 0 7.5 10.5c0 .688.245 1.276.735 1.765.49.49 1.078.735 1.765.735Zm0 12.5c-3.354-2.854-5.86-5.505-7.515-7.954C.828 15.1 0 12.833 0 10.75c0-3.125 1.005-5.615 3.016-7.469C5.026 1.427 7.354.5 10 .5s4.974.927 6.984 2.781S20 7.625 20 10.75c0 2.083-.828 4.349-2.484 6.796-1.656 2.449-4.162 5.1-7.516 7.954Z"/></svg>