<svg width="20" height="24" viewBox="0 0 20 24" fill="none" xmlns="http://www.w3.org/2000/svg">
<path d="M3.75 23.25C3.0625 23.25 2.47375 23.005 1.98375 22.515C1.49375 22.025 1.24917 21.4367 1.25 20.75V4.5C0.895838 4.5 0.598755 4.38 0.358755 4.14C0.118755 3.9 -0.000829008 3.60334 4.32525e-06 3.25C4.32525e-06 2.89584 0.120004 2.59875 0.360004 2.35875C0.600004 2.11875 0.896671 1.99917 1.25 2H6.25C6.25 1.64584 6.37 1.34875 6.61 1.10875C6.85 0.868754 7.14667 0.749171 7.5 0.750004H12.5C12.8542 0.750004 13.1513 0.870004 13.3913 1.11C13.6313 1.35 13.7508 1.64667 13.75 2H18.75C19.1042 2 19.4013 2.12 19.6413 2.36C19.8813 2.6 20.0008 2.89667 20 3.25C20 3.60417 19.88 3.90125 19.64 4.14125C19.4 4.38125 19.1033 4.50084 18.75 4.5V20.75C18.75 21.4375 18.505 22.0263 18.015 22.5163C17.525 23.0063 16.9367 23.2508 16.25 23.25H3.75ZM3.75 4.5V20.75H16.25V4.5H3.75ZM6.25 17C6.25 17.3542 6.37 17.6513 6.61 17.8913C6.85 18.1313 7.14667 18.2508 7.5 18.25C7.85417 18.25 8.15125 18.13 8.39125 17.89C8.63125 17.65 8.75084 17.3533 8.75 17V8.25C8.75 7.89584 8.63 7.59875 8.39 7.35875C8.15 7.11875 7.85334 6.99917 7.5 7C7.14584 7 6.84875 7.12 6.60875 7.36C6.36875 7.6 6.24917 7.89667 6.25 8.25V17ZM11.25 17C11.25 17.3542 11.37 17.6513 11.61 17.8913C11.85 18.1313 12.1467 18.2508 12.5 18.25C12.8542 18.25 13.1513 18.13 13.3913 17.89C13.6313 17.65 13.7508 17.3533 13.75 17V8.25C13.75 7.89584 13.63 7.59875 13.39 7.35875C13.15 7.11875 12.8533 6.99917 12.5 7C12.1458 7 11.8488 7.12 11.6088 7.36C11.3688 7.6 11.2492 7.89667 11.25 8.25V17Z" fill="currentColor"/>
</svg>
